<mxfile host="app.diagrams.net" modified="2021-02-19T21:41:34.890Z" agent="5.0 (Windows NT 10.0; Win64; x64) AppleWebKit/537.36 (KHTML, like Gecko) Chrome/84.0.4147.125 Safari/537.36 Edg/84.0.522.59" etag="nuNn5lmsqfq4dPo-umpy" version="14.4.2" type="github" pages="2">
  <diagram id="nKOJrB1VfP32wkWAsUuA" name="IDology">
    <mxGraphModel dx="1422" dy="714" grid="1" gridSize="10" guides="1" tooltips="1" connect="1" arrows="1" fold="1" page="1" pageScale="1" pageWidth="1100" pageHeight="850" math="0" shadow="0">
      <root>
        <mxCell id="0" />
        <mxCell id="1" parent="0" />
        <mxCell id="LGv2I6CfhC-DXlK5i3q5-1" value="RISE" style="shape=umlLifeline;perimeter=lifelinePerimeter;container=1;collapsible=0;recursiveResize=0;rounded=0;shadow=0;strokeWidth=1;" parent="1" vertex="1">
          <mxGeometry x="175" y="80" width="100" height="400" as="geometry" />
        </mxCell>
        <mxCell id="LGv2I6CfhC-DXlK5i3q5-2" value="" style="points=[];perimeter=orthogonalPerimeter;rounded=0;shadow=0;strokeWidth=1;" parent="LGv2I6CfhC-DXlK5i3q5-1" vertex="1">
          <mxGeometry x="45" y="70" width="10" height="310" as="geometry" />
        </mxCell>
        <mxCell id="LGv2I6CfhC-DXlK5i3q5-3" value="Returning Customer Search" style="verticalAlign=bottom;startArrow=oval;endArrow=block;startSize=8;shadow=0;strokeWidth=1;" parent="LGv2I6CfhC-DXlK5i3q5-1" target="LGv2I6CfhC-DXlK5i3q5-2" edge="1">
          <mxGeometry relative="1" as="geometry">
            <mxPoint x="-105" y="70" as="sourcePoint" />
          </mxGeometry>
        </mxCell>
        <mxCell id="LGv2I6CfhC-DXlK5i3q5-4" value="Billing API" style="shape=umlLifeline;perimeter=lifelinePerimeter;container=1;collapsible=0;recursiveResize=0;rounded=0;shadow=0;strokeWidth=1;" parent="1" vertex="1">
          <mxGeometry x="320" y="80" width="100" height="400" as="geometry" />
        </mxCell>
        <mxCell id="LGv2I6CfhC-DXlK5i3q5-5" value="" style="points=[];perimeter=orthogonalPerimeter;rounded=0;shadow=0;strokeWidth=1;" parent="LGv2I6CfhC-DXlK5i3q5-4" vertex="1">
          <mxGeometry x="45" y="70" width="10" height="310" as="geometry" />
        </mxCell>
        <mxCell id="LGv2I6CfhC-DXlK5i3q5-6" value="Search for Customer" style="verticalAlign=bottom;endArrow=block;entryX=0.487;entryY=0.261;shadow=0;strokeWidth=1;entryDx=0;entryDy=0;entryPerimeter=0;" parent="1" edge="1">
          <mxGeometry relative="1" as="geometry">
            <mxPoint x="230" y="164.4000000000001" as="sourcePoint" />
            <mxPoint x="368.70000000000005" y="164.4000000000001" as="targetPoint" />
          </mxGeometry>
        </mxCell>
        <mxCell id="LGv2I6CfhC-DXlK5i3q5-7" value="Store Rep" style="shape=umlActor;verticalLabelPosition=bottom;verticalAlign=top;html=1;" parent="1" vertex="1">
          <mxGeometry x="50" y="40" width="30" height="60" as="geometry" />
        </mxCell>
        <mxCell id="LGv2I6CfhC-DXlK5i3q5-8" value="Customer Hub" style="shape=umlLifeline;perimeter=lifelinePerimeter;container=1;collapsible=0;recursiveResize=0;rounded=0;shadow=0;strokeWidth=1;" parent="1" vertex="1">
          <mxGeometry x="460" y="80" width="100" height="405" as="geometry" />
        </mxCell>
        <mxCell id="LGv2I6CfhC-DXlK5i3q5-9" value="" style="html=1;points=[];perimeter=orthogonalPerimeter;" parent="LGv2I6CfhC-DXlK5i3q5-8" vertex="1">
          <mxGeometry x="45" y="80" width="10" height="60" as="geometry" />
        </mxCell>
        <mxCell id="j5LGFhsNLmgZWFVlywce-5" value="" style="html=1;points=[];perimeter=orthogonalPerimeter;" parent="LGv2I6CfhC-DXlK5i3q5-8" vertex="1">
          <mxGeometry x="45" y="290" width="10" height="60" as="geometry" />
        </mxCell>
        <mxCell id="LGv2I6CfhC-DXlK5i3q5-11" value="Search for Customer" style="verticalAlign=bottom;endArrow=block;shadow=0;strokeWidth=1;exitX=1.1;exitY=0.125;exitDx=0;exitDy=0;exitPerimeter=0;" parent="1" source="LGv2I6CfhC-DXlK5i3q5-5" target="LGv2I6CfhC-DXlK5i3q5-9" edge="1">
          <mxGeometry relative="1" as="geometry">
            <mxPoint x="400" y="200" as="sourcePoint" />
            <mxPoint x="560" y="171" as="targetPoint" />
          </mxGeometry>
        </mxCell>
        <mxCell id="LGv2I6CfhC-DXlK5i3q5-12" value="Capture the customers information. Using the AuthenticID ID SDK" style="text;html=1;strokeColor=none;fillColor=none;align=left;verticalAlign=middle;whiteSpace=wrap;rounded=0;" parent="1" vertex="1">
          <mxGeometry x="30" y="160" width="160" height="50" as="geometry" />
        </mxCell>
        <mxCell id="LGv2I6CfhC-DXlK5i3q5-13" value="SmartPay" style="shape=umlLifeline;perimeter=lifelinePerimeter;container=1;collapsible=0;recursiveResize=0;rounded=0;shadow=0;strokeWidth=1;" parent="1" vertex="1">
          <mxGeometry x="610" y="80" width="100" height="400" as="geometry" />
        </mxCell>
        <mxCell id="LGv2I6CfhC-DXlK5i3q5-14" value="" style="points=[];perimeter=orthogonalPerimeter;rounded=0;shadow=0;strokeWidth=1;" parent="LGv2I6CfhC-DXlK5i3q5-13" vertex="1">
          <mxGeometry x="45" y="80" width="10" height="270" as="geometry" />
        </mxCell>
        <mxCell id="LGv2I6CfhC-DXlK5i3q5-15" value="Return Customer Search Results" style="verticalAlign=bottom;endArrow=block;shadow=0;strokeWidth=1;exitX=-0.014;exitY=0.84;exitDx=0;exitDy=0;exitPerimeter=0;" parent="1" source="LGv2I6CfhC-DXlK5i3q5-9" edge="1">
          <mxGeometry relative="1" as="geometry">
            <mxPoint x="460" y="211" as="sourcePoint" />
            <mxPoint x="375" y="210.5999999999999" as="targetPoint" />
            <Array as="points" />
          </mxGeometry>
        </mxCell>
        <mxCell id="LGv2I6CfhC-DXlK5i3q5-16" value="Assumptions :&amp;nbsp;&lt;br&gt;" style="text;html=1;strokeColor=none;fillColor=none;align=left;verticalAlign=middle;whiteSpace=wrap;rounded=0;" parent="1" vertex="1">
          <mxGeometry x="40" y="360" width="160" height="50" as="geometry" />
        </mxCell>
        <mxCell id="LGv2I6CfhC-DXlK5i3q5-20" value="Checking / Verify / Searching for Customer" style="verticalAlign=bottom;endArrow=block;shadow=0;strokeWidth=1;exitX=0.957;exitY=0.273;exitDx=0;exitDy=0;exitPerimeter=0;" parent="1" edge="1">
          <mxGeometry x="0.2755" y="30" relative="1" as="geometry">
            <mxPoint x="374.56999999999994" y="240.17000000000007" as="sourcePoint" />
            <mxPoint x="655" y="241" as="targetPoint" />
            <Array as="points">
              <mxPoint x="550" y="241" />
            </Array>
            <mxPoint x="-30" y="30" as="offset" />
          </mxGeometry>
        </mxCell>
        <mxCell id="LGv2I6CfhC-DXlK5i3q5-21" value="IDology" style="shape=umlLifeline;perimeter=lifelinePerimeter;container=1;collapsible=0;recursiveResize=0;rounded=0;shadow=0;strokeWidth=1;" parent="1" vertex="1">
          <mxGeometry x="730" y="80" width="100" height="400" as="geometry" />
        </mxCell>
        <mxCell id="LGv2I6CfhC-DXlK5i3q5-22" value="" style="points=[];perimeter=orthogonalPerimeter;rounded=0;shadow=0;strokeWidth=1;" parent="LGv2I6CfhC-DXlK5i3q5-21" vertex="1">
          <mxGeometry x="45" y="80" width="10" height="250" as="geometry" />
        </mxCell>
        <mxCell id="LGv2I6CfhC-DXlK5i3q5-26" value="Return Reference ID" style="verticalAlign=bottom;endArrow=block;shadow=0;strokeWidth=1;" parent="1" edge="1">
          <mxGeometry relative="1" as="geometry">
            <mxPoint x="780" y="315" as="sourcePoint" />
            <mxPoint x="666" y="315.1300000000001" as="targetPoint" />
          </mxGeometry>
        </mxCell>
        <mxCell id="LGv2I6CfhC-DXlK5i3q5-28" value="Return Customer Info +Â ReferenceID" style="verticalAlign=bottom;endArrow=block;shadow=0;strokeWidth=1;exitX=-0.157;exitY=0.925;exitDx=0;exitDy=0;exitPerimeter=0;" parent="1" edge="1">
          <mxGeometry relative="1" as="geometry">
            <mxPoint x="653.4300000000001" y="333.75" as="sourcePoint" />
            <mxPoint x="375" y="333.75" as="targetPoint" />
          </mxGeometry>
        </mxCell>
        <mxCell id="LGv2I6CfhC-DXlK5i3q5-29" value="Return Customer Info + ReferenceID" style="verticalAlign=bottom;endArrow=block;shadow=0;strokeWidth=1;exitX=0.1;exitY=0.965;exitDx=0;exitDy=0;exitPerimeter=0;entryX=1.057;entryY=0.964;entryDx=0;entryDy=0;entryPerimeter=0;" parent="1" edge="1">
          <mxGeometry relative="1" as="geometry">
            <mxPoint x="366" y="430.31000000000006" as="sourcePoint" />
            <mxPoint x="230.56999999999994" y="429.9999999999999" as="targetPoint" />
          </mxGeometry>
        </mxCell>
        <mxCell id="j5LGFhsNLmgZWFVlywce-8" value="Store new ReferenceID" style="verticalAlign=bottom;endArrow=block;shadow=0;strokeWidth=1;" parent="1" edge="1">
          <mxGeometry relative="1" as="geometry">
            <mxPoint x="380" y="384.5" as="sourcePoint" />
            <mxPoint x="500" y="384.5" as="targetPoint" />
          </mxGeometry>
        </mxCell>
        <mxCell id="j5LGFhsNLmgZWFVlywce-11" value="Reverify Customer" style="verticalAlign=bottom;endArrow=block;shadow=0;strokeWidth=1;" parent="1" edge="1">
          <mxGeometry relative="1" as="geometry">
            <mxPoint x="670" y="260" as="sourcePoint" />
            <mxPoint x="770" y="260" as="targetPoint" />
            <Array as="points">
              <mxPoint x="670" y="260" />
            </Array>
          </mxGeometry>
        </mxCell>
      </root>
    </mxGraphModel>
  </diagram>
  <diagram name="Authentic ID" id="9lwGVifndfSYXJrEc0j7">
    <mxGraphModel dx="1422" dy="714" grid="1" gridSize="10" guides="1" tooltips="1" connect="1" arrows="1" fold="1" page="1" pageScale="1" pageWidth="1100" pageHeight="850" math="0" shadow="0">
      <root>
        <mxCell id="GBa8UJOaKn1eKW9Bzf_P-0" />
        <mxCell id="GBa8UJOaKn1eKW9Bzf_P-1" parent="GBa8UJOaKn1eKW9Bzf_P-0" />
        <mxCell id="GBa8UJOaKn1eKW9Bzf_P-2" value="RISE" style="shape=umlLifeline;perimeter=lifelinePerimeter;container=1;collapsible=0;recursiveResize=0;rounded=0;shadow=0;strokeWidth=1;" vertex="1" parent="GBa8UJOaKn1eKW9Bzf_P-1">
          <mxGeometry x="175" y="80" width="100" height="400" as="geometry" />
        </mxCell>
        <mxCell id="GBa8UJOaKn1eKW9Bzf_P-3" value="" style="points=[];perimeter=orthogonalPerimeter;rounded=0;shadow=0;strokeWidth=1;" vertex="1" parent="GBa8UJOaKn1eKW9Bzf_P-2">
          <mxGeometry x="45" y="70" width="10" height="310" as="geometry" />
        </mxCell>
        <mxCell id="GBa8UJOaKn1eKW9Bzf_P-4" value="Returning Customer Search" style="verticalAlign=bottom;startArrow=oval;endArrow=block;startSize=8;shadow=0;strokeWidth=1;" edge="1" parent="GBa8UJOaKn1eKW9Bzf_P-2" target="GBa8UJOaKn1eKW9Bzf_P-3">
          <mxGeometry relative="1" as="geometry">
            <mxPoint x="-105" y="70" as="sourcePoint" />
          </mxGeometry>
        </mxCell>
        <mxCell id="GBa8UJOaKn1eKW9Bzf_P-5" value="Billing API" style="shape=umlLifeline;perimeter=lifelinePerimeter;container=1;collapsible=0;recursiveResize=0;rounded=0;shadow=0;strokeWidth=1;" vertex="1" parent="GBa8UJOaKn1eKW9Bzf_P-1">
          <mxGeometry x="320" y="80" width="100" height="400" as="geometry" />
        </mxCell>
        <mxCell id="GBa8UJOaKn1eKW9Bzf_P-6" value="" style="points=[];perimeter=orthogonalPerimeter;rounded=0;shadow=0;strokeWidth=1;" vertex="1" parent="GBa8UJOaKn1eKW9Bzf_P-5">
          <mxGeometry x="45" y="70" width="10" height="310" as="geometry" />
        </mxCell>
        <mxCell id="GBa8UJOaKn1eKW9Bzf_P-7" value="Search for Customer" style="verticalAlign=bottom;endArrow=block;entryX=0.487;entryY=0.261;shadow=0;strokeWidth=1;entryDx=0;entryDy=0;entryPerimeter=0;" edge="1" parent="GBa8UJOaKn1eKW9Bzf_P-1">
          <mxGeometry relative="1" as="geometry">
            <mxPoint x="230" y="164.4000000000001" as="sourcePoint" />
            <mxPoint x="368.70000000000005" y="164.4000000000001" as="targetPoint" />
          </mxGeometry>
        </mxCell>
        <mxCell id="GBa8UJOaKn1eKW9Bzf_P-8" value="Store Rep" style="shape=umlActor;verticalLabelPosition=bottom;verticalAlign=top;html=1;" vertex="1" parent="GBa8UJOaKn1eKW9Bzf_P-1">
          <mxGeometry x="50" y="40" width="30" height="60" as="geometry" />
        </mxCell>
        <mxCell id="GBa8UJOaKn1eKW9Bzf_P-9" value="Customer Hub" style="shape=umlLifeline;perimeter=lifelinePerimeter;container=1;collapsible=0;recursiveResize=0;rounded=0;shadow=0;strokeWidth=1;" vertex="1" parent="GBa8UJOaKn1eKW9Bzf_P-1">
          <mxGeometry x="460" y="80" width="100" height="405" as="geometry" />
        </mxCell>
        <mxCell id="GBa8UJOaKn1eKW9Bzf_P-10" value="" style="html=1;points=[];perimeter=orthogonalPerimeter;" vertex="1" parent="GBa8UJOaKn1eKW9Bzf_P-9">
          <mxGeometry x="45" y="80" width="10" height="60" as="geometry" />
        </mxCell>
        <mxCell id="GBa8UJOaKn1eKW9Bzf_P-11" value="" style="html=1;points=[];perimeter=orthogonalPerimeter;" vertex="1" parent="GBa8UJOaKn1eKW9Bzf_P-9">
          <mxGeometry x="45" y="290" width="10" height="60" as="geometry" />
        </mxCell>
        <mxCell id="GBa8UJOaKn1eKW9Bzf_P-12" value="Search for Customer" style="verticalAlign=bottom;endArrow=block;shadow=0;strokeWidth=1;exitX=1.1;exitY=0.125;exitDx=0;exitDy=0;exitPerimeter=0;" edge="1" parent="GBa8UJOaKn1eKW9Bzf_P-1" source="GBa8UJOaKn1eKW9Bzf_P-6" target="GBa8UJOaKn1eKW9Bzf_P-10">
          <mxGeometry relative="1" as="geometry">
            <mxPoint x="400" y="200" as="sourcePoint" />
            <mxPoint x="560" y="171" as="targetPoint" />
          </mxGeometry>
        </mxCell>
        <mxCell id="GBa8UJOaKn1eKW9Bzf_P-13" value="Capture the customers information. Using the AuthenticID ID SDK" style="text;html=1;strokeColor=none;fillColor=none;align=left;verticalAlign=middle;whiteSpace=wrap;rounded=0;" vertex="1" parent="GBa8UJOaKn1eKW9Bzf_P-1">
          <mxGeometry x="30" y="160" width="160" height="50" as="geometry" />
        </mxCell>
        <mxCell id="GBa8UJOaKn1eKW9Bzf_P-14" value="Orchestrator" style="shape=umlLifeline;perimeter=lifelinePerimeter;container=1;collapsible=0;recursiveResize=0;rounded=0;shadow=0;strokeWidth=1;" vertex="1" parent="GBa8UJOaKn1eKW9Bzf_P-1">
          <mxGeometry x="610" y="80" width="100" height="400" as="geometry" />
        </mxCell>
        <mxCell id="GBa8UJOaKn1eKW9Bzf_P-15" value="" style="points=[];perimeter=orthogonalPerimeter;rounded=0;shadow=0;strokeWidth=1;" vertex="1" parent="GBa8UJOaKn1eKW9Bzf_P-14">
          <mxGeometry x="45" y="80" width="10" height="270" as="geometry" />
        </mxCell>
        <mxCell id="GBa8UJOaKn1eKW9Bzf_P-16" value="Return Customer Search Results" style="verticalAlign=bottom;endArrow=block;shadow=0;strokeWidth=1;exitX=-0.014;exitY=0.84;exitDx=0;exitDy=0;exitPerimeter=0;" edge="1" parent="GBa8UJOaKn1eKW9Bzf_P-1" source="GBa8UJOaKn1eKW9Bzf_P-10">
          <mxGeometry relative="1" as="geometry">
            <mxPoint x="460" y="211" as="sourcePoint" />
            <mxPoint x="375" y="210.5999999999999" as="targetPoint" />
            <Array as="points" />
          </mxGeometry>
        </mxCell>
        <mxCell id="GBa8UJOaKn1eKW9Bzf_P-17" value="Assumptions :&amp;nbsp;&lt;br&gt;" style="text;html=1;strokeColor=none;fillColor=none;align=left;verticalAlign=middle;whiteSpace=wrap;rounded=0;" vertex="1" parent="GBa8UJOaKn1eKW9Bzf_P-1">
          <mxGeometry x="40" y="360" width="160" height="50" as="geometry" />
        </mxCell>
        <mxCell id="GBa8UJOaKn1eKW9Bzf_P-18" value="IAM" style="shape=umlLifeline;perimeter=lifelinePerimeter;container=1;collapsible=0;recursiveResize=0;rounded=0;shadow=0;strokeWidth=1;" vertex="1" parent="GBa8UJOaKn1eKW9Bzf_P-1">
          <mxGeometry x="850" y="80" width="100" height="410" as="geometry" />
        </mxCell>
        <mxCell id="GBa8UJOaKn1eKW9Bzf_P-19" value="" style="points=[];perimeter=orthogonalPerimeter;rounded=0;shadow=0;strokeWidth=1;" vertex="1" parent="GBa8UJOaKn1eKW9Bzf_P-18">
          <mxGeometry x="45" y="80" width="10" height="250" as="geometry" />
        </mxCell>
        <mxCell id="GBa8UJOaKn1eKW9Bzf_P-20" value="Search DocumentID associated &lt;br&gt;with TMOID" style="edgeStyle=orthogonalEdgeStyle;html=1;align=left;spacingLeft=2;endArrow=block;rounded=0;entryX=0.929;entryY=0.87;entryDx=0;entryDy=0;entryPerimeter=0;" edge="1" parent="GBa8UJOaKn1eKW9Bzf_P-18">
          <mxGeometry relative="1" as="geometry">
            <mxPoint x="55" y="199.50857142857137" as="sourcePoint" />
            <Array as="points">
              <mxPoint x="88" y="199.48000000000002" />
              <mxPoint x="88" y="219.48000000000002" />
            </Array>
            <mxPoint x="54.289999999999964" y="219.58000000000004" as="targetPoint" />
          </mxGeometry>
        </mxCell>
        <mxCell id="GBa8UJOaKn1eKW9Bzf_P-21" value="Checking / Verify / Searching for Customer" style="verticalAlign=bottom;endArrow=block;shadow=0;strokeWidth=1;exitX=0.957;exitY=0.273;exitDx=0;exitDy=0;exitPerimeter=0;" edge="1" parent="GBa8UJOaKn1eKW9Bzf_P-1">
          <mxGeometry x="0.2755" y="30" relative="1" as="geometry">
            <mxPoint x="374.56999999999994" y="240.17000000000007" as="sourcePoint" />
            <mxPoint x="655" y="241" as="targetPoint" />
            <Array as="points">
              <mxPoint x="550" y="241" />
            </Array>
            <mxPoint x="-30" y="30" as="offset" />
          </mxGeometry>
        </mxCell>
        <mxCell id="GBa8UJOaKn1eKW9Bzf_P-22" value="AuthenticID" style="shape=umlLifeline;perimeter=lifelinePerimeter;container=1;collapsible=0;recursiveResize=0;rounded=0;shadow=0;strokeWidth=1;" vertex="1" parent="GBa8UJOaKn1eKW9Bzf_P-1">
          <mxGeometry x="730" y="80" width="100" height="400" as="geometry" />
        </mxCell>
        <mxCell id="GBa8UJOaKn1eKW9Bzf_P-23" value="" style="points=[];perimeter=orthogonalPerimeter;rounded=0;shadow=0;strokeWidth=1;" vertex="1" parent="GBa8UJOaKn1eKW9Bzf_P-22">
          <mxGeometry x="45" y="80" width="10" height="250" as="geometry" />
        </mxCell>
        <mxCell id="GBa8UJOaKn1eKW9Bzf_P-24" value="Search for TMOID based on something" style="verticalAlign=bottom;endArrow=block;shadow=0;strokeWidth=1;exitX=0.929;exitY=0.515;exitDx=0;exitDy=0;exitPerimeter=0;entryX=0.014;entryY=0.512;entryDx=0;entryDy=0;entryPerimeter=0;" edge="1" parent="GBa8UJOaKn1eKW9Bzf_P-1">
          <mxGeometry relative="1" as="geometry">
            <mxPoint x="664.2900000000002" y="270.6300000000001" as="sourcePoint" />
            <mxPoint x="895.1399999999999" y="270" as="targetPoint" />
            <Array as="points">
              <mxPoint x="830" y="270.48" />
            </Array>
          </mxGeometry>
        </mxCell>
        <mxCell id="GBa8UJOaKn1eKW9Bzf_P-25" value="Return TMOID" style="verticalAlign=bottom;endArrow=block;shadow=0;strokeWidth=1;exitX=-0.1;exitY=0.665;exitDx=0;exitDy=0;exitPerimeter=0;" edge="1" parent="GBa8UJOaKn1eKW9Bzf_P-1">
          <mxGeometry relative="1" as="geometry">
            <mxPoint x="895" y="315.1300000000001" as="sourcePoint" />
            <mxPoint x="666" y="315.1300000000001" as="targetPoint" />
          </mxGeometry>
        </mxCell>
        <mxCell id="GBa8UJOaKn1eKW9Bzf_P-26" value="Return Customer Info +Â TMOID" style="verticalAlign=bottom;endArrow=block;shadow=0;strokeWidth=1;exitX=-0.157;exitY=0.925;exitDx=0;exitDy=0;exitPerimeter=0;" edge="1" parent="GBa8UJOaKn1eKW9Bzf_P-1">
          <mxGeometry relative="1" as="geometry">
            <mxPoint x="653.4300000000001" y="333.75" as="sourcePoint" />
            <mxPoint x="375" y="333.75" as="targetPoint" />
          </mxGeometry>
        </mxCell>
        <mxCell id="GBa8UJOaKn1eKW9Bzf_P-27" value="Return Customer Info + TMOID" style="verticalAlign=bottom;endArrow=block;shadow=0;strokeWidth=1;exitX=0.1;exitY=0.965;exitDx=0;exitDy=0;exitPerimeter=0;entryX=1.057;entryY=0.964;entryDx=0;entryDy=0;entryPerimeter=0;" edge="1" parent="GBa8UJOaKn1eKW9Bzf_P-1">
          <mxGeometry relative="1" as="geometry">
            <mxPoint x="366" y="373.1500000000001" as="sourcePoint" />
            <mxPoint x="230.56999999999994" y="372.8399999999999" as="targetPoint" />
          </mxGeometry>
        </mxCell>
        <mxCell id="GBa8UJOaKn1eKW9Bzf_P-28" value="Store new TMOID" style="verticalAlign=bottom;endArrow=block;shadow=0;strokeWidth=1;" edge="1" parent="GBa8UJOaKn1eKW9Bzf_P-1">
          <mxGeometry relative="1" as="geometry">
            <mxPoint x="380" y="400" as="sourcePoint" />
            <mxPoint x="500" y="400" as="targetPoint" />
          </mxGeometry>
        </mxCell>
        <mxCell id="GBa8UJOaKn1eKW9Bzf_P-29" value="Reverify Customer" style="verticalAlign=bottom;endArrow=block;shadow=0;strokeWidth=1;" edge="1" parent="GBa8UJOaKn1eKW9Bzf_P-1">
          <mxGeometry relative="1" as="geometry">
            <mxPoint x="670" y="240" as="sourcePoint" />
            <mxPoint x="770" y="240" as="targetPoint" />
            <Array as="points">
              <mxPoint x="670" y="240" />
            </Array>
          </mxGeometry>
        </mxCell>
      </root>
    </mxGraphModel>
  </diagram>
</mxfile>
